<?xml version="1.0" encoding="iso-8859-1"?>
<!-- Uploaded to: SVG Repo, www.svgrepo.com, Generator: SVG Repo Mixer Tools -->
<svg version="1.1" id="Layer_1" xmlns="http://www.w3.org/2000/svg" xmlns:xlink="http://www.w3.org/1999/xlink" 
	 viewBox="0 0 508 508" xml:space="preserve">
<path style="fill:#F8B64C;" d="M39.65,425.4v61.4c0,11.7,9.5,21.2,21.2,21.2h386.3c11.7,0,21.2-9.5,21.2-21.2v-61.4H39.65z"/>
<rect x="39.85" y="174.5" style="fill:#FFD15C;" width="428.5" height="250.9"/>
<rect x="65.05" y="130.5" style="fill:#40596B;" width="378" height="43.9"/>
<polygon style="fill:#334A5E;" points="39.85,174.5 90.35,148.5 90.35,174.5 "/>
<polygon style="fill:#F8B64C;" points="90.35,148.5 65.05,130.5 65.05,161.5 "/>
<polygon style="fill:#334A5E;" points="468.25,174.5 417.75,148.5 417.75,174.5 "/>
<polygon style="fill:#F8B64C;" points="417.75,148.5 443.05,130.5 443.05,161.5 "/>
<g>
	<circle style="fill:#40596B;" cx="167.25" cy="227.5" r="16.7"/>
	<circle style="fill:#40596B;" cx="340.85" cy="227.5" r="16.7"/>
</g>
<path style="fill:#F8B64C;" d="M334.05,299.2v9.7c0,44.1-35.9,80-80,80s-80-35.9-80-80v-9.7h-13.5v9.7c0,51.6,41.9,93.5,93.5,93.5
	s93.5-41.9,93.5-93.5v-9.7H334.05z"/>
<path style="fill:#F2F2F2;" d="M340.85,220.7c-3.7,0-6.7,3-6.7,6.7v74.7c0,44.1-35.9,80-80,80s-80-35.9-80-80v-74.7
	c0-3.7-3-6.7-6.7-6.7s-6.7,3-6.7,6.7v74.7c0,51.6,41.9,93.5,93.5,93.5s93.5-41.9,93.5-93.5v-74.7
	C347.55,223.7,344.55,220.7,340.85,220.7z"/>
<path style="fill:#84DBFF;" d="M409.95,131.1c-0.3-1.6-0.6-3.2-0.9-4.8c-13-63.7-64.3-113.4-128.8-124.1c-4.7-0.8-9.5-1.4-14.3-1.7
	c-3.9-0.4-7.9-0.5-11.9-0.5c-9.9,0-19.6,0.9-29,2.7c-0.5,0.1-0.9,0.2-1.4,0.3c-39.3,7.7-73.4,29.8-96.3,60.7c-1.8,2.3-3.4,4.7-5,7.1
	c-16.7,25.1-26.4,55.1-26.4,87.5c0,5.5,0.3,10.9,0.8,16.3h314.7c0.5-5.4,0.8-10.8,0.8-16.3C412.25,148.9,411.45,139.9,409.95,131.1z
	"/>
<g>
	<path style="fill:#54C0EB;" d="M245.55,29.9c-0.2,5-7.4,5.4-12.1,7.2c-3.4,1.3-6,4-8.6,6.5c-6,5.7-12.8,10.5-20,14.5
		c-7.5,4.1-18,6.6-23.6,0.2c17.9-7.4,31.5-23.5,37.7-41.8c-8.6,4.7-15.2,12.3-22.7,18.7c-8.5,7.1-18.3,12.7-26.5,20.1
		c-8.2,7.5-14.9,17.8-14.5,28.8c-0.1-6.3-4-12.3-9.3-15.8s-11.9-4.8-18.2-4.7c-0.2,0-0.4,0-0.6,0c23-30.9,57-53.1,96.3-60.7
		c0.5-0.1,0.9-0.2,1.4-0.3c1.9,8.1,7.1,15.4,14.1,19.8C242.05,24.3,245.75,26.4,245.55,29.9z"/>
	<path style="fill:#54C0EB;" d="M291.85,174.5c-0.3-0.6-0.7-1.2-1-1.8c-2.1-3.6-4.2-7.5-3.3-11.6c3.1-0.4,6.5-0.2,9.6,0.5l0.9,1
		c-1.1,2.5,0.1,5.6,2,7.4c1.9,1.9,4.6,3,7.1,4c0.3,0.1,0.7,0.3,1.1,0.4h37.4c1-3.5,1.1-7.3,1.5-10.9c0.6-6,3-13,8.8-14.7
		c5.7-1.7,11.4,2.7,14.9,7.5c3.4,4.8,6.1,10.5,11.1,13.7c0.1-10.5,0.3-21,0.4-31.5c0-3.8,0.2-7.8,2.6-10.7
		c4.1-4.8,11.6-3.6,17.9-2.3c2,0.5,4.2,0.9,6.2,0.6c-13-63.5-64.3-113.2-128.8-123.9c3.9,2.2,7.7,4.6,10.3,7.9
		c0.7,0.9,1.4,2.1,1.2,3.2c-0.6,2.8-4.8,2.3-7.4,3.4c-4.4,2-3,9.1,1,11.9s9.2,3.2,13.5,5.4c1.7,0.9,3.4,2.4,3.1,4.3
		c-0.1,1-0.8,1.8-1.5,2.6c-5.2,5.8-10.4,11.7-15.6,17.6c-1.4,1.4-2.7,3-4.5,3.9c-2.3,1.2-5.1,1.1-7.8,1
		c-10.1-0.3-22.7,1.9-25.4,11.6c-0.6,2.4-0.6,5.2-2.3,7c-1.5,1.7-4.2,2.2-5.4,4.1c-2,3,0.8,6.8,1.3,10.4c0.8,5.7-5.9,10.9-11.1,8.8
		c-0.2-6.1-0.4-12.3-0.5-18.4c0-1-0.1-2.1-0.6-2.9c-0.6-1-1.9-1.4-3-1.7c-5.8-1.8-13.1-3-17.1,1.5c-4.1,4.5-2,11.7,1.2,16.9
		c3.2,5.1,7.6,10.2,7.8,16.2c0.1,3-1.4,6.4-4.3,7c-4.3,0.9-7.1-4.6-7.3-9c-5.5,11.4-7.4,24.6-5.2,37.2c-8.9,2.3-17.7,4.5-26.6,6.7
		c-3.2,0.9-6.7,1.8-8.8,4.5c-2,2.5-2.2,6-2.2,9.1c0,0.7,0.1,1.4,0.1,2h128.7V174.5z M337.95,148.2c0.6,0.6,0.8,1.5,0.8,2.4
		c0.2,2.2,0.3,4.7-1.4,6.2c-0.6,0.6-1.4,1-2.2,1.2c-6.3,2.1-13.9-2.9-14.5-9.6l1-0.8c4.6,0,9.3,0,13.9,0
		C336.35,147.6,337.25,147.7,337.95,148.2z M311.35,104.9l0.6-0.2c1.8,0,3.5,0.1,5.2,0.2c-0.9,3.7,0.2,7.9,2.7,10.8
		c1.1,1.3,2.5,2.3,3.7,3.6c2.8,3.1,3.6,7.9,2.1,11.8c-3.4,0.3-6.8,0.5-10.2-0.3c-3.3-0.9-6.5-2.9-7.9-6c-0.8-2-0.9-4-1-6.2
		C306.45,113.5,306.95,107.5,311.35,104.9z M218.95,133c2.8-1.9,6-3,8.8-4.9l0.6-5c6.1,6.2,13.5,11,21.6,14
		c3.9,1.5,7.9,2.5,12.1,2.9c4.3,0.4,8.7,0.1,13-0.2c1.4-0.2,2.8-0.3,4.2-0.3c2.9-0.2,5.8-0.5,8.8-0.7c3.5-0.2,7.2-0.6,10-2.7
		c1.1,4.3-0.9,8.9-4,12s-7.2,5-11.3,6.8c-5.7,2.6-11.8,5.2-17.9,4.3c-5.2-0.9-9.6-4.2-14.2-6.6c-6.7-3.6-14.3-5.5-21.8-5.5
		c-2.7-0.1-5.4,0.2-8-0.5s-5.1-2.4-5.9-5C213.85,138.3,216.15,135,218.95,133z"/>
</g>
</svg>